HIERARCHY
ROOT Hips
{
    OFFSET 0.000000 0.000000 0.000000
    CHANNELS 6 Xposition Yposition Zposition Zrotation Xrotation Yrotation
    JOINT Spine
    {
        OFFSET -0.000000 14.517291 0.000000
        CHANNELS 3 Zrotation Xrotation Yrotation
        JOINT Spine1
        {
            OFFSET -0.000000 37.558300 0.000000
            CHANNELS 3 Zrotation Xrotation Yrotation
            JOINT Neck
            {
                OFFSET -0.000000 37.404057 3.400369
                CHANNELS 3 Zrotation Xrotation Yrotation
                JOINT Head
                {
                    OFFSET -0.000000 24.785618 -3.540803
                    CHANNELS 3 Zrotation Xrotation Yrotation
                    End Site
                    {
                        OFFSET -0.000000 35.408028 0.000000
                    }
                }
            }
            JOINT LeftShoulder
            {
                OFFSET 6.992933 33.973492 -0.192664
                CHANNELS 3 Zrotation Xrotation Yrotation
                JOINT LeftArm
                {
                    OFFSET 21.527611 0.000000 0.000000
                    CHANNELS 3 Zrotation Xrotation Yrotation
                    JOINT LeftForeArm
                    {
                        OFFSET 56.353916 0.000000 0.000000
                        CHANNELS 3 Zrotation Xrotation Yrotation
                        JOINT LeftHand
                        {
                            OFFSET 47.774071 0.000000 0.000000
                            CHANNELS 3 Zrotation Xrotation Yrotation
                            End Site
                            {
                                OFFSET 26.556021 0.000000 0.000000
                            }
                        }
                    }
                }
            }
            JOINT RightShoulder
            {
                OFFSET -7.065357 33.973492 -0.192664
                CHANNELS 3 Zrotation Xrotation Yrotation
                JOINT RightArm
                {
                    OFFSET -21.527611 0.000000 0.000000
                    CHANNELS 3 Zrotation Xrotation Yrotation
                    JOINT RightForeArm
                    {
                        OFFSET -56.353916 0.000000 0.000000
                        CHANNELS 3 Zrotation Xrotation Yrotation
                        JOINT RightHand
                        {
                            OFFSET -47.774071 0.000000 0.000000
                            CHANNELS 3 Zrotation Xrotation Yrotation
                            End Site
                            {
                                OFFSET -26.556021 0.000000 0.000000
                            }
                        }
                    }
                }
            }
        }
    }
    JOINT LeftUpLeg
    {
        OFFSET 17.704014 0.000000 0.000000
        CHANNELS 3 Zrotation Xrotation Yrotation
        JOINT LeftLeg
        {
            OFFSET -0.000000 -81.181816 0.000000
            CHANNELS 3 Zrotation Xrotation Yrotation
            JOINT LeftFoot
            {
                OFFSET -0.000000 -62.821102 0.000000
                CHANNELS 3 Zrotation Xrotation Yrotation
                JOINT LeftToeBase
                {
                    OFFSET -0.000000 -11.507608 26.556021
                    CHANNELS 3 Zrotation Xrotation Yrotation
                    End Site
                    {
                        OFFSET -0.000000 0.000000 7.081605
                    }
                }
            }
        }
    }
    JOINT RightUpLeg
    {
        OFFSET -17.704014 0.000000 0.000000
        CHANNELS 3 Zrotation Xrotation Yrotation
        JOINT RightLeg
        {
            OFFSET -0.000000 -81.181816 0.000000
            CHANNELS 3 Zrotation Xrotation Yrotation
            JOINT RightFoot
            {
                OFFSET -0.000000 -62.821102 0.000000
                CHANNELS 3 Zrotation Xrotation Yrotation
                JOINT RightToeBase
                {
                    OFFSET -0.000000 -11.507608 26.556021
                    CHANNELS 3 Zrotation Xrotation Yrotation
                    End Site
                    {
                        OFFSET -0.000000 0.000000 7.081605
                    }
                }
            }
        }
    }
}
MOTION
Frames:    12
Frame Time:    0.008333
26.055553    156.274078    -35.036175    1.100182    -1.128727    -44.631844    1.610832    -1.480114    1.307506    1.771007    1.443487    0.405069    15.673419    -2.895366    15.010721    -8.853762    9.833957    12.396645    9.597830    1.185729    -19.267191    -11.150762    -16.996145    -44.188950    12.402439    -39.124649    -23.536690    -27.970213    -27.381739    -43.739704    -5.427859    3.927400    0.901434    38.119511    4.799201    81.760010    8.291749    -18.647894    92.099518    13.388197    -23.726303    26.633520    16.813709    -19.020851    4.182487    -11.707005    18.342192    -3.665614    -8.024744    0.188480    38.048714    0.000000    0.000000    0.000000    -16.163357    1.961589    -6.497807    6.668383    26.718643    -2.463134    5.424544    -21.220793    -16.835281    0.000000    0.000000    0.000000    
26.060089    156.264526    -35.045647    1.102985    -1.131173    -44.632965    1.608364    -1.477016    1.304320    1.759651    1.453237    0.403912    15.681521    -2.889755    15.014276    -8.857615    9.814022    12.397917    9.597007    1.189542    -19.289557    -11.147364    -17.015991    -44.164135    12.415098    -39.116634    -23.527004    -27.973608    -27.368761    -43.743950    -5.428085    3.942370    0.880339    38.031780    4.887735    81.707626    8.602427    -18.087345    91.805954    13.242247    -23.482327    26.556999    16.812792    -19.035179    4.189872    -11.704255    18.365908    -3.658149    -8.028617    0.180056    38.036266    0.000000    0.000000    0.000000    -16.173960    1.933015    -6.494656    6.680524    26.772871    -2.468011    5.422673    -21.235182    -16.839212    0.000000    0.000000    0.000000    
26.065659    156.254211    -35.055454    1.106331    -1.132676    -44.636894    1.610233    -1.467793    1.288937    1.743541    1.454943    0.399066    15.680254    -2.887974    15.030816    -8.846901    9.800920    12.415224    9.595087    1.185982    -19.281925    -11.171084    -17.048571    -44.158360    12.404578    -39.093834    -23.516640    -27.960081    -27.349936    -43.747414    -5.420471    3.964915    0.873356    37.925526    4.960981    81.668724    8.884195    -17.507141    91.479767    13.142198    -23.168522    26.540333    16.815128    -19.046980    4.202541    -11.708982    18.381683    -3.647415    -8.021597    0.181287    38.028580    0.000000    0.000000    0.000000    -16.181824    1.897610    -6.489986    6.685678    26.836311    -2.453338    5.417639    -21.258739    -16.846254    0.000000    0.000000    0.000000    
26.069359    156.240036    -35.067440    1.108895    -1.132446    -44.645538    1.615254    -1.464499    1.280460    1.722472    1.461746    0.396379    15.687559    -2.873078    15.042155    -8.848287    9.776429    12.425864    9.596591    1.184514    -19.295639    -11.165063    -17.061480    -44.124641    12.406213    -39.105419    -23.503197    -27.951199    -27.367371    -43.748592    -5.413872    3.983242    0.866978    37.830196    5.018760    81.622719    9.205999    -16.909927    91.149902    12.971384    -22.893793    26.492043    16.825853    -19.059742    4.209729    -11.720979    18.404179    -3.650393    -8.018839    0.161264    38.035675    0.000000    0.000000    0.000000    -16.192846    1.855240    -6.456336    6.715114    26.907856    -2.483763    5.414067    -21.285528    -16.852568    0.000000    0.000000    0.000000    
26.078909    156.228119    -35.079025    1.117652    -1.138758    -44.654442    1.605798    -1.448780    1.270855    1.713037    1.450224    0.393666    15.693520    -2.853784    15.054283    -8.852411    9.756406    12.438383    9.587792    1.186812    -19.304663    -11.180023    -17.093870    -44.108929    12.393948    -39.104374    -23.484789    -27.932487    -27.375183    -43.757267    -5.407032    3.990021    0.861947    37.755207    5.075027    81.557945    9.598854    -16.270012    90.853600    12.825300    -22.637756    26.494156    16.824692    -19.071613    4.211687    -11.729167    18.423771    -3.659288    -8.024251    0.149543    38.045658    0.000000    0.000000    0.000000    -16.219751    1.813888    -6.430756    6.753465    26.976315    -2.515474    5.416197    -21.310610    -16.837219    0.000000    0.000000    0.000000    
26.085079    156.210739    -35.090073    1.128687    -1.139734    -44.668964    1.592489    -1.455257    1.261424    1.713583    1.465176    0.390234    15.686255    -2.834760    15.071668    -8.848443    9.722396    12.458046    9.584463    1.183149    -19.297592    -11.190107    -17.101143    -44.098618    12.412468    -39.114414    -23.450233    -27.932249    -27.387087    -43.755962    -5.413244    3.997909    0.864936    37.665619    5.125294    81.526405    9.859219    -15.680534    90.462852    12.478177    -22.344013    26.379892    16.832285    -19.087523    4.240386    -11.744204    18.448229    -3.674622    -8.015121    0.131810    38.059963    0.000000    0.000000    0.000000    -16.243700    1.766396    -6.394865    6.798841    27.047131    -2.520797    5.366003    -21.343164    -16.866709    0.000000    0.000000    0.000000    
26.089680    156.195984    -35.102524    1.137329    -1.145054    -44.684048    1.579293    -1.455719    1.255683    1.707437    1.475111    0.388402    15.701780    -2.823491    15.080759    -8.865845    9.716277    12.464910    9.583532    1.180742    -19.306519    -11.186981    -17.092926    -44.073170    12.451136    -39.138206    -23.404333    -27.954763    -27.401892    -43.760765    -5.407150    4.013247    0.863238    37.590260    5.167559    81.474274    10.224075    -15.075306    90.134628    12.385419    -22.069626    26.420444    16.835443    -19.094837    4.259061    -11.751699    18.462555    -3.669455    -8.016623    0.115178    38.058163    0.000000    0.000000    0.000000    -16.263906    1.729354    -6.367436    6.824098    27.108152    -2.514163    5.358639    -21.383461    -16.892927    0.000000    0.000000    0.000000    
26.097961    156.180725    -35.113537    1.149882    -1.155481    -44.699848    1.561782    -1.451941    1.244455    1.700486    1.484017    0.384587    15.705931    -2.792437    15.092941    -8.879189    9.675003    12.477258    9.576715    1.188816    -19.298857    -11.201727    -17.135822    -44.072716    12.458282    -39.132465    -23.365952    -27.966166    -27.395229    -43.754238    -5.404870    4.028307    0.868777    37.531071    5.198164    81.404388    10.661499    -14.431824    89.880432    12.434902    -21.813707    26.389683    16.832327    -19.101328    4.276190    -11.763447    18.476809    -3.666309    -8.005435    0.114474    38.048313    0.000000    0.000000    0.000000    -16.292952    1.695338    -6.358368    6.838002    27.162771    -2.509994    5.362135    -21.416439    -16.877907    0.000000    0.000000    0.000000    
26.112661    156.162033    -35.099869    1.159523    -1.164363    -44.725235    1.578934    -1.467285    1.245772    1.669874    1.517244    0.384812    15.705219    -2.778980    15.095993    -8.895210    9.655113    12.480006    9.556791    1.170586    -19.297188    -11.199116    -17.123501    -44.058472    12.492029    -39.142910    -23.318777    -27.954275    -27.412132    -43.746799    -5.413215    4.042169    0.861636    37.447086    5.245743    81.364754    11.059671    -13.855403    89.599777    12.223156    -21.643400    26.294119    16.820028    -19.098541    4.299255    -11.767041    18.496443    -3.660536    -7.973193    0.077499    38.041874    0.000000    0.000000    0.000000    -16.336348    1.669335    -6.352966    6.874167    27.206295    -2.516873    5.338331    -21.440428    -16.862226    0.000000    0.000000    0.000000    
26.116730    156.150528    -35.110550    1.163404    -1.171148    -44.740368    1.566020    -1.469522    1.239122    1.672551    1.535554    0.382249    15.694976    -2.791697    15.100147    -8.878077    9.681278    12.487413    9.550833    1.182151    -19.293051    -11.275251    -17.259932    -44.081272    12.401531    -39.066402    -23.327301    -27.905834    -27.360428    -43.741398    -5.420515    4.067036    0.861593    37.366932    5.283171    81.324715    11.465893    -13.309104    89.286232    12.161080    -21.451569    26.358128    16.821507    -19.098858    4.316339    -11.767854    18.507769    -3.658512    -7.969780    0.074229    38.034565    0.000000    0.000000    0.000000    -16.354723    1.651452    -6.363555    6.882177    27.237452    -2.507678    5.330549    -21.464405    -16.825649    0.000000    0.000000    0.000000    
26.119884    156.139572    -35.121216    1.171285    -1.175746    -44.757469    1.555613    -1.478697    1.238220    1.668051    1.560667    0.381776    15.692338    -2.775858    15.099578    -8.885977    9.651843    12.486754    9.564664    1.230742    -19.242163    -11.318642    -17.331135    -44.159504    12.419974    -39.051617    -23.276865    -27.892632    -27.350576    -43.739948    -5.426786    4.072072    0.867582    37.306641    5.322086    81.274628    11.877297    -12.739506    88.992111    11.907575    -21.304285    26.242094    16.821728    -19.105217    4.339570    -11.771533    18.523308    -3.640100    -7.977254    0.056345    38.023594    0.000000    0.000000    0.000000    -16.375486    1.629739    -6.389929    6.889385    27.270273    -2.473236    5.313620    -21.491529    -16.817415    0.000000    0.000000    0.000000    
26.116825    156.132935    -35.130043    1.168813    -1.181175    -44.771469    1.549534    -1.481297    1.233415    1.668059    1.584408    0.379843    15.670578    -2.779964    15.089583    -8.863839    9.656510    12.481179    9.549558    1.220086    -19.240486    -11.313382    -17.323242    -44.147362    12.439121    -39.066719    -23.250515    -27.866907    -27.377659    -43.736633    -5.435755    4.087674    0.867150    37.214828    5.398893    81.213699    12.366993    -12.253819    88.807793    12.212097    -21.196535    26.228636    16.827930    -19.095844    4.344208    -11.774723    18.522610    -3.618387    -7.969163    0.057839    38.006630    0.000000    0.000000    0.000000    -16.380434    1.625866    -6.402246    6.885661    27.281952    -2.494465    5.315779    -21.498291    -16.763529    0.000000    0.000000    0.000000    
